<mxfile modified="2024-05-16T17:22:57.673Z" host="app.diagrams.net" agent="Mozilla/5.0 (Windows NT 10.0; Win64; x64; rv:126.0) Gecko/20100101 Firefox/126.0" etag="zPUQ7HCserwSM-zU1RiP" version="24.4.3" type="device">
  <diagram id="l8hXMBHkgcEJcSW0mbfh" name="Page-1">
    <mxGraphModel dx="1050" dy="530" grid="1" gridSize="10" guides="1" tooltips="1" connect="1" arrows="1" fold="1" page="1" pageScale="1" pageWidth="1169" pageHeight="827" math="0" shadow="0">
      <root>
        <mxCell id="0" />
        <mxCell id="1" parent="0" />
        <mxCell id="M8QZ5pGBHcYDBBMOWYzi-1" value="" style="outlineConnect=0;dashed=0;verticalLabelPosition=bottom;verticalAlign=top;align=center;html=1;shape=mxgraph.aws3.alexa_enabled_device;fillColor=#5294CF;gradientColor=none;" parent="1" vertex="1">
          <mxGeometry x="610" y="460" width="39.5" height="39.5" as="geometry" />
        </mxCell>
        <mxCell id="M8QZ5pGBHcYDBBMOWYzi-2" value="" style="outlineConnect=0;dashed=0;verticalLabelPosition=bottom;verticalAlign=top;align=center;html=1;shape=mxgraph.aws3.alexa_enabled_device;fillColor=#5294CF;gradientColor=none;" parent="1" vertex="1">
          <mxGeometry x="400" y="460" width="39.5" height="39.5" as="geometry" />
        </mxCell>
        <mxCell id="M8QZ5pGBHcYDBBMOWYzi-3" value="" style="outlineConnect=0;dashed=0;verticalLabelPosition=bottom;verticalAlign=top;align=center;html=1;shape=mxgraph.aws3.alexa_enabled_device;fillColor=#5294CF;gradientColor=none;" parent="1" vertex="1">
          <mxGeometry x="470" y="490" width="39.5" height="39.5" as="geometry" />
        </mxCell>
        <mxCell id="M8QZ5pGBHcYDBBMOWYzi-4" value="" style="outlineConnect=0;dashed=0;verticalLabelPosition=bottom;verticalAlign=top;align=center;html=1;shape=mxgraph.aws3.alexa_enabled_device;fillColor=#5294CF;gradientColor=none;" parent="1" vertex="1">
          <mxGeometry x="545" y="490" width="39.5" height="39.5" as="geometry" />
        </mxCell>
        <mxCell id="M8QZ5pGBHcYDBBMOWYzi-6" value="" style="endArrow=none;dashed=1;html=1;rounded=0;entryX=0.25;entryY=1;entryDx=0;entryDy=0;" parent="1" edge="1">
          <mxGeometry width="50" height="50" relative="1" as="geometry">
            <mxPoint x="430" y="460" as="sourcePoint" />
            <mxPoint x="505" y="364" as="targetPoint" />
          </mxGeometry>
        </mxCell>
        <mxCell id="M8QZ5pGBHcYDBBMOWYzi-7" value="" style="endArrow=none;dashed=1;html=1;rounded=0;entryX=0.5;entryY=1;entryDx=0;entryDy=0;exitX=0.5;exitY=0;exitDx=0;exitDy=0;exitPerimeter=0;" parent="1" source="M8QZ5pGBHcYDBBMOWYzi-3" edge="1">
          <mxGeometry width="50" height="50" relative="1" as="geometry">
            <mxPoint x="440" y="470" as="sourcePoint" />
            <mxPoint x="530" y="364" as="targetPoint" />
          </mxGeometry>
        </mxCell>
        <mxCell id="M8QZ5pGBHcYDBBMOWYzi-9" value="" style="endArrow=none;dashed=1;html=1;rounded=0;entryX=0.5;entryY=1;entryDx=0;entryDy=0;" parent="1" source="M8QZ5pGBHcYDBBMOWYzi-4" edge="1">
          <mxGeometry width="50" height="50" relative="1" as="geometry">
            <mxPoint x="460" y="490" as="sourcePoint" />
            <mxPoint x="530" y="364" as="targetPoint" />
          </mxGeometry>
        </mxCell>
        <mxCell id="M8QZ5pGBHcYDBBMOWYzi-10" value="IoT &lt;br&gt;platforma" style="dashed=0;strokeColor=#dddddd;shadow=1;strokeWidth=1;labelPosition=center;verticalLabelPosition=middle;align=left;verticalAlign=middle;spacingLeft=5;fontSize=12;whiteSpace=wrap;html=1;" parent="1" vertex="1">
          <mxGeometry x="480" y="210" width="100" height="44" as="geometry" />
        </mxCell>
        <mxCell id="M8QZ5pGBHcYDBBMOWYzi-12" value="&lt;div&gt;Korisnik&lt;/div&gt;&lt;div&gt;&lt;br&gt;&lt;/div&gt;" style="sketch=0;outlineConnect=0;fontColor=#232F3E;gradientColor=none;strokeColor=#232F3E;fillColor=#ffffff;dashed=0;verticalLabelPosition=bottom;verticalAlign=top;align=center;html=1;fontSize=12;fontStyle=0;aspect=fixed;shape=mxgraph.aws4.resourceIcon;resIcon=mxgraph.aws4.user;" parent="1" vertex="1">
          <mxGeometry x="620" y="30" width="60" height="60" as="geometry" />
        </mxCell>
        <mxCell id="M8QZ5pGBHcYDBBMOWYzi-15" value="" style="endArrow=classic;startArrow=classic;html=1;rounded=0;exitX=0.5;exitY=0;exitDx=0;exitDy=0;entryX=0.5;entryY=1;entryDx=0;entryDy=0;" parent="1" target="M8QZ5pGBHcYDBBMOWYzi-10" edge="1">
          <mxGeometry width="50" height="50" relative="1" as="geometry">
            <mxPoint x="530" y="320" as="sourcePoint" />
            <mxPoint x="570" y="260" as="targetPoint" />
          </mxGeometry>
        </mxCell>
        <mxCell id="M8QZ5pGBHcYDBBMOWYzi-17" value="&lt;div&gt;Sloj uređaja&lt;/div&gt;" style="text;html=1;align=center;verticalAlign=middle;resizable=0;points=[];autosize=1;strokeColor=none;fillColor=none;" parent="1" vertex="1">
          <mxGeometry x="690" y="464.75" width="80" height="30" as="geometry" />
        </mxCell>
        <mxCell id="M8QZ5pGBHcYDBBMOWYzi-19" value="&lt;b&gt;LOKALNI PROSTOR&lt;/b&gt;" style="text;html=1;align=center;verticalAlign=middle;resizable=0;points=[];autosize=1;strokeColor=none;fillColor=none;" parent="1" vertex="1">
          <mxGeometry x="310" y="312.13" width="140" height="30" as="geometry" />
        </mxCell>
        <mxCell id="M8QZ5pGBHcYDBBMOWYzi-20" value="" style="rounded=1;whiteSpace=wrap;html=1;fillColor=#f5f5f5;fontColor=#333333;strokeColor=#666666;opacity=30;strokeWidth=2;" parent="1" vertex="1">
          <mxGeometry x="300" y="190" width="470" height="90" as="geometry" />
        </mxCell>
        <mxCell id="M8QZ5pGBHcYDBBMOWYzi-21" value="&lt;b&gt;UDALJENI PROSTOR&lt;br&gt;(CLOUD)&lt;br&gt;&lt;/b&gt;" style="text;html=1;align=center;verticalAlign=middle;resizable=0;points=[];autosize=1;strokeColor=none;fillColor=none;" parent="1" vertex="1">
          <mxGeometry x="300" y="200" width="150" height="40" as="geometry" />
        </mxCell>
        <mxCell id="M8QZ5pGBHcYDBBMOWYzi-22" value="" style="strokeColor=#6c8ebf;shadow=1;strokeWidth=1;rounded=1;absoluteArcSize=1;arcSize=2;opacity=40;fillColor=#dae8fc;" parent="1" vertex="1">
          <mxGeometry x="480" y="170" width="100" height="40" as="geometry" />
        </mxCell>
        <mxCell id="M8QZ5pGBHcYDBBMOWYzi-23" value="&lt;div&gt;Korisničko&lt;br&gt;sučelje&lt;br&gt;&lt;/div&gt;" style="sketch=0;dashed=0;connectable=0;html=1;fillColor=#757575;strokeColor=none;shape=mxgraph.gcp2.frontend_platform_services;part=1;labelPosition=right;verticalLabelPosition=middle;align=left;verticalAlign=middle;spacingLeft=5;fontSize=12;" parent="M8QZ5pGBHcYDBBMOWYzi-22" vertex="1">
          <mxGeometry y="0.5" width="32" height="32" relative="1" as="geometry">
            <mxPoint x="5" y="-16" as="offset" />
          </mxGeometry>
        </mxCell>
        <mxCell id="M8QZ5pGBHcYDBBMOWYzi-25" value="" style="endArrow=classic;startArrow=classic;html=1;rounded=0;exitX=0.5;exitY=0;exitDx=0;exitDy=0;" parent="1" source="M8QZ5pGBHcYDBBMOWYzi-22" target="M8QZ5pGBHcYDBBMOWYzi-12" edge="1">
          <mxGeometry width="50" height="50" relative="1" as="geometry">
            <mxPoint x="520" y="280" as="sourcePoint" />
            <mxPoint x="570" y="230" as="targetPoint" />
            <Array as="points">
              <mxPoint x="530" y="60" />
            </Array>
          </mxGeometry>
        </mxCell>
        <mxCell id="M8QZ5pGBHcYDBBMOWYzi-18" value="" style="rounded=1;whiteSpace=wrap;html=1;opacity=20;fillColor=#008a00;fontColor=#ffffff;strokeColor=default;strokeWidth=2;" parent="1" vertex="1">
          <mxGeometry x="300" y="300" width="470" height="250" as="geometry" />
        </mxCell>
        <mxCell id="M8QZ5pGBHcYDBBMOWYzi-29" value="" style="endArrow=none;dashed=1;html=1;rounded=0;entryX=0.75;entryY=1;entryDx=0;entryDy=0;exitX=0.165;exitY=0.165;exitDx=0;exitDy=0;exitPerimeter=0;" parent="1" source="M8QZ5pGBHcYDBBMOWYzi-1" edge="1">
          <mxGeometry width="50" height="50" relative="1" as="geometry">
            <mxPoint x="600" y="500" as="sourcePoint" />
            <mxPoint x="555" y="364" as="targetPoint" />
          </mxGeometry>
        </mxCell>
        <mxCell id="M8QZ5pGBHcYDBBMOWYzi-30" value="" style="strokeColor=#dddddd;shadow=1;strokeWidth=1;rounded=1;absoluteArcSize=1;arcSize=2;" parent="1" vertex="1">
          <mxGeometry x="480" y="320" width="100" height="44" as="geometry" />
        </mxCell>
        <mxCell id="M8QZ5pGBHcYDBBMOWYzi-31" value="Gateway" style="sketch=0;dashed=0;connectable=0;html=1;fillColor=#757575;strokeColor=none;shape=mxgraph.gcp2.gateway;part=1;labelPosition=right;verticalLabelPosition=middle;align=left;verticalAlign=middle;spacingLeft=5;fontSize=12;" parent="M8QZ5pGBHcYDBBMOWYzi-30" vertex="1">
          <mxGeometry y="0.5" width="32" height="32" relative="1" as="geometry">
            <mxPoint x="5" y="-16" as="offset" />
          </mxGeometry>
        </mxCell>
        <mxCell id="M8QZ5pGBHcYDBBMOWYzi-33" value="" style="editableCssRules=.*;html=1;shape=image;verticalLabelPosition=bottom;labelBackgroundColor=#ffffff;verticalAlign=top;aspect=fixed;imageAspect=0;image=data:image/svg+xml,PHN2ZyB4bWxucz0iaHR0cDovL3d3dy53My5vcmcvMjAwMC9zdmciIHhtbG5zOnY9Imh0dHBzOi8vdmVjdGEuaW8vbmFubyIgd2lkdGg9IjE5LjcwNjUzMTUyNDY1ODIwMyIgaGVpZ2h0PSIxOS45ODM4MjE4Njg4OTY0ODQiIGZpbGwtcnVsZT0iZXZlbm9kZCIgdmlld0JveD0iLTAuMDAwMjA5NTQ2OTY4MTA4MDQzMDcgMC4wMDAxNzcyNDA4Mjg2MzQyMzk3MyAxOS43MDY1MzE1MjQ2NTgyMDMgMTkuOTgzODIxODY4ODk2NDg0Ij4mI3hhOwk8c3R5bGUgdHlwZT0idGV4dC9jc3MiPiYjeGE7CS5zdDB7ZmlsbDojNDI4NWY0O30mI3hhOwkuc3Qxe2ZpbGw6IzY2OWRmNjt9JiN4YTsJPC9zdHlsZT4mI3hhOwk8cGF0aCBjbGFzcz0ic3QwIiBkPSJNMTAuMzQ1IDEwLjM5NnYtNC40M2gwYTEuMTQgMS4xNCAwIDAgMC0uNS0yLjE2NCAxLjE0IDEuMTQgMCAwIDAtLjUgMi4xNjR2NC40MmgtNC4yN3YtMi44MmExLjE0IDEuMTQgMCAwIDAtLjUzLTIuMTUgMS4xNCAxLjE0IDAgMCAwLS41MiAyLjE1djIuODNoLS4yMmEzLjgyIDMuODIgMCAwIDEtMi43MjItNi40ODUgMy44MiAzLjgyIDAgMCAxIDQuMTIyLS44OTUgNS4yMiA1LjIyIDAgMCAxIDkuNDQtLjA1IDQgNCAwIDAgMSAxLjIzLS4yaDBhMy44MyAzLjgzIDAgMSAxIDAgNy42NmgtLjI1di0yLjg2YTEuMTQgMS4xNCAwIDAgMC0uNTMtMi4xNDkgMS4xNCAxLjE0IDAgMCAwLS41MyAyLjE0OXYyLjgzeiIvPiYjeGE7CTxwYXRoIGNsYXNzPSJzdDEiIGQ9Ik01LjA3NSAxMy4zNTZhMiAyIDAgMCAxIDEuNTQgMiAyLjA3IDIuMDcgMCAwIDEtNC4xMS4zNTQgMi4wNyAyLjA3IDAgMCAxIDEuNTItMi4zNTR2LTIuOTZoMXptLS41MyAzYTEgMSAwIDEgMCAwLTIgMSAxIDAgMSAwIDAgMnptMTEuMDgtM2EyLjA3IDIuMDcgMCAwIDEtLjUzIDQuMDcxIDIuMDcgMi4wNyAwIDAgMS0uNTMtNC4wNzF2LTIuOTVoMS4wNnptLS41MyAzYTEgMSAwIDAgMCAuMzktMS45NCAxIDEgMCAwIDAtMS4yNjggMS4zMDcgMSAxIDAgMCAwIC44NzguNjMzem0tNC43NS0uNDNoMGEyLjA2IDIuMDYgMCAwIDEtLjUgNC4wNTggMi4wNiAyLjA2IDAgMCAxLS41LTQuMDU4di01LjVoMS4wNnptLS41NCAzYTEgMSAwIDAgMCAuNTUtMS44MzIgMSAxIDAgMCAwLTEuNDggMS4yMTIgMSAxIDAgMCAwIC45My42eiIvPiYjeGE7PC9zdmc+;" parent="1" vertex="1">
          <mxGeometry x="545" y="217" width="30" height="30" as="geometry" />
        </mxCell>
        <mxCell id="M8QZ5pGBHcYDBBMOWYzi-35" value="" style="shape=curlyBracket;whiteSpace=wrap;html=1;rounded=1;flipH=1;labelPosition=right;verticalLabelPosition=middle;align=left;verticalAlign=middle;" parent="1" vertex="1">
          <mxGeometry x="670" y="419.75" width="20" height="120" as="geometry" />
        </mxCell>
        <mxCell id="100TDRZbtftiyTUdK-Mq-1" value="" style="shape=curlyBracket;whiteSpace=wrap;html=1;rounded=1;flipH=1;labelPosition=right;verticalLabelPosition=middle;align=left;verticalAlign=middle;" vertex="1" parent="1">
          <mxGeometry x="640" y="312.13" width="20" height="59.75" as="geometry" />
        </mxCell>
        <mxCell id="100TDRZbtftiyTUdK-Mq-2" value="Mrežni sloj" style="text;html=1;align=center;verticalAlign=middle;resizable=0;points=[];autosize=1;strokeColor=none;fillColor=none;" vertex="1" parent="1">
          <mxGeometry x="660" y="327.01" width="80" height="30" as="geometry" />
        </mxCell>
        <mxCell id="100TDRZbtftiyTUdK-Mq-3" value="" style="shape=curlyBracket;whiteSpace=wrap;html=1;rounded=1;flipH=1;labelPosition=right;verticalLabelPosition=middle;align=left;verticalAlign=middle;" vertex="1" parent="1">
          <mxGeometry x="619.75" y="217" width="20" height="59.75" as="geometry" />
        </mxCell>
        <mxCell id="100TDRZbtftiyTUdK-Mq-4" value="Upravljački sloj&lt;br&gt;Podatkovni sloj" style="text;html=1;align=center;verticalAlign=middle;resizable=0;points=[];autosize=1;strokeColor=none;fillColor=none;" vertex="1" parent="1">
          <mxGeometry x="639.75" y="226.88" width="100" height="40" as="geometry" />
        </mxCell>
        <mxCell id="100TDRZbtftiyTUdK-Mq-5" value="" style="shape=curlyBracket;whiteSpace=wrap;html=1;rounded=1;flipH=1;labelPosition=right;verticalLabelPosition=middle;align=left;verticalAlign=middle;" vertex="1" parent="1">
          <mxGeometry x="619.75" y="170" width="20" height="47" as="geometry" />
        </mxCell>
        <mxCell id="100TDRZbtftiyTUdK-Mq-6" value="Aplikacijski sloj" style="text;html=1;align=center;verticalAlign=middle;resizable=0;points=[];autosize=1;strokeColor=none;fillColor=none;" vertex="1" parent="1">
          <mxGeometry x="640" y="180" width="100" height="30" as="geometry" />
        </mxCell>
      </root>
    </mxGraphModel>
  </diagram>
</mxfile>
